# xmcd
#
# Track frame offsets: 
#        150
#        16898
#        28589
#        37278
#        45998
#        61098
#        69329
#        84892
#        91896
#        105788
#        117525
#        136815
#        148521
#
# Disc length: 2130 seconds
#
# Revision: 0
# Processed by: cddbd v1.5.2PL0 Copyright (c) Steve Scherf et al.
# Submitted via: ExactAudioCopy v0.99pb4
#
DISCID=9b08500d
DTITLE=Kelli Shay Hicks - Buck Again
DYEAR=2007
DGENRE=Indie
TTITLE0=$$ Goes Far
TTITLE1=Stay
TTITLE2=Choose My Battles
TTITLE3=Go Away
TTITLE4=Hospital Song
TTITLE5=Jem
TTITLE6=Corrie
TTITLE7=Andy
TTITLE8=The Lake
TTITLE9=Buck Again
TTITLE10=Oh, No, Too Bleep
TTITLE11=I'm Gonna Go
TTITLE12=Cash N Carry
EXTD=
EXTT0=
EXTT1=
EXTT2=
EXTT3=
EXTT4=
EXTT5=
EXTT6=
EXTT7=
EXTT8=
EXTT9=
EXTT10=
EXTT11=
EXTT12=
PLAYORDER=
